<?xml version="1.0" encoding="UTF-8" standalone="no"?>
<!-- Created with Inkscape (http://www.inkscape.org/) -->

<svg
   xmlns:dc="http://purl.org/dc/elements/1.1/"
   xmlns:cc="http://creativecommons.org/ns#"
   xmlns:rdf="http://www.w3.org/1999/02/22-rdf-syntax-ns#"
   xmlns:svg="http://www.w3.org/2000/svg"
   xmlns="http://www.w3.org/2000/svg"
   xmlns:sodipodi="http://sodipodi.sourceforge.net/DTD/sodipodi-0.dtd"
   xmlns:inkscape="http://www.inkscape.org/namespaces/inkscape"
   version="1.1"
   id="svg2"
   width="16"
   height="16"
   viewBox="0 0 16 16"
   sodipodi:docname="archlinux-16x16.svg"
   inkscape:version="0.92.4 5da689c313, 2019-01-14">
  <metadata
     id="metadata8">
    <rdf:RDF>
      <cc:Work
         rdf:about="">
        <dc:format>image/svg+xml</dc:format>
        <dc:type
           rdf:resource="http://purl.org/dc/dcmitype/StillImage" />
        <dc:title></dc:title>
      </cc:Work>
    </rdf:RDF>
  </metadata>
  <defs
     id="defs6" />
  <sodipodi:namedview
     pagecolor="#ffffff"
     bordercolor="#666666"
     borderopacity="1"
     objecttolerance="10"
     gridtolerance="10"
     guidetolerance="10"
     inkscape:pageopacity="0"
     inkscape:pageshadow="2"
     inkscape:window-width="1366"
     inkscape:window-height="746"
     id="namedview4"
     showgrid="false"
     inkscape:pagecheckerboard="true"
     fit-margin-top="0"
     fit-margin-left="0"
     fit-margin-right="0"
     fit-margin-bottom="0"
     inkscape:zoom="3.6875"
     inkscape:cx="80.949152"
     inkscape:cy="25.558483"
     inkscape:window-x="0"
     inkscape:window-y="22"
     inkscape:window-maximized="1"
     inkscape:current-layer="svg2" />
  <g
     id="g12"
     transform="matrix(0.1475989,0,0,0.14868663,-1.5278159,-1.5450221)">
    <path
       style="display:inline;fill:#dddddd"
       d="m 12.270474,113.75 c 4.536298,-7.83545 20.352601,-37.101618 28.237446,-52.25 4.294186,-8.25 7.974406,-15.200289 8.178265,-15.445086 0.203859,-0.244797 3.503432,1.247 7.332384,3.315105 C 62.593382,52.921225 65,53.30085 65,50.786768 65,50.184409 62.3,47.24821 59,44.261881 55.7,41.275553 53,38.344118 53,37.747582 53,36.162606 64.255095,9.9217615 64.730854,10.397521 c 0.221535,0.221535 4.111823,8.679845 8.645084,18.796245 4.533261,10.1164 13.112453,27.59883 19.064871,38.849844 5.952418,11.251015 11.264381,21.309729 11.804371,22.352699 0.86354,1.667903 0.69712,1.813774 -1.38169,1.211079 -10.958125,-3.17701 -11.863041,-0.661113 -2.11349,5.876031 9.80271,6.572791 11.66251,8.375931 15.23056,14.766581 1.7657,3.1625 2.99773,5.75 2.73785,5.75 -0.25988,0 -5.59033,-2.4495 -11.84546,-5.44334 C 100.61783,109.56282 92.125,105.98893 88,104.61468 l -7.5,-2.49864 -0.598684,-7.808022 C 78.889732,81.11496 72.751364,72.5 64.362575,72.5 c -3.995778,0 -4.944532,0.470021 -8.377401,4.150238 -4.585947,4.916377 -7.262242,12.923237 -6.859007,20.520574 l 0.273464,5.152308 -5.949816,1.68931 c -7.615808,2.16234 -14.374584,4.92184 -24.396029,9.96053 -4.405165,2.21487 -8.28714,4.02704 -8.62661,4.02704 -0.339471,0 0.490013,-1.9125 1.843298,-4.25 z"
       id="path14"
       inkscape:connector-curvature="0" />
  </g>
</svg>
